<?xml version="1.0" encoding="iso-8859-1"?>
<!-- Generator: Adobe Illustrator 19.0.0, SVG Export Plug-In . SVG Version: 6.00 Build 0)  -->
<svg version="1.1" id="Layer_1" xmlns="http://www.w3.org/2000/svg" xmlns:xlink="http://www.w3.org/1999/xlink" x="0px" y="0px"
	 viewBox="0 0 512.294 512.294" style="enable-background:new 0 0 512.294 512.294;" xml:space="preserve">
<g>
	<g>
		<g>
			<circle cx="333.086" cy="478.157" r="34.133"/>
			<path d="M511.689,500.258v0.341l-17.067-42.667c-1.134-2.846-3.707-4.865-6.741-5.291l-55.211-7.851
				c-25.6-51.2-64.256-69.973-98.816-70.827l-25.003-33.365l28.672-17.067c2.612-1.589,4.174-4.453,4.096-7.509v-10.837
				c0.048-4.255-3.046-7.895-7.253-8.533c-36.916-6.961-70.306-26.429-94.549-55.125c-34.02-40.02-50.15-92.235-44.629-144.469
				c0.198-2.295-0.541-4.572-2.048-6.315l-24.32-27.819c-2.808-3.254-7.597-3.912-11.179-1.536l-18.432,12.373l-29.44-44.032
				c-1.083-1.844-2.819-3.215-4.864-3.84L11.038,0.29C6.325-0.935,1.511,1.892,0.286,6.605s1.602,9.527,6.315,10.752l90.795,24.747
				l27.648,41.472l-18.517,12.373c-3.6,2.42-4.812,7.156-2.816,11.008L240.243,371.49c2.164,4.187,7.312,5.826,11.499,3.662
				c0.152-0.078,0.301-0.161,0.448-0.249l9.557-5.717l15.445,20.651c-34.656,19.747-53.246,59.075-46.507,98.389
				c0.751,4.105,4.36,7.065,8.533,6.997h34.133c4.713,0.046,8.571-3.736,8.617-8.449c0.004-0.428-0.024-0.855-0.084-1.279
				c-0.173-2.443-0.173-4.896,0-7.339c-0.049-28.277,22.835-51.239,51.112-51.288c4.23-0.007,8.444,0.51,12.547,1.539
				c23.022,5.384,39.162,26.11,38.741,49.749c-0.038,7.473-1.728,14.846-4.949,21.589c-2.026,4.255-0.22,9.347,4.035,11.374
				c1.139,0.542,2.384,0.826,3.645,0.829h116.736c4.713,0.005,8.537-3.812,8.542-8.525
				C512.295,502.34,512.09,501.265,511.689,500.258z M300.83,378.573c-2.731,0.853-5.461,1.877-8.533,2.987l-16.213-21.589
				l17.664-10.581l19.968,26.368C309.363,376.41,305.058,377.351,300.83,378.573z"/>
			<path d="M252.787,230.69c21.53,25.421,51.092,42.731,83.797,49.067c2.374,0.377,4.604-1.242,4.981-3.615
				c0.034-0.216,0.052-0.433,0.054-0.651v-10.667c-0.003-2.074-0.761-4.076-2.133-5.632l-120.32-138.411
				c-1.524-1.797-4.216-2.019-6.014-0.495c-1.04,0.882-1.595,2.207-1.496,3.567C212.692,163.132,227.216,200.857,252.787,230.69z"/>
		</g>
	</g>
</g>
<g>
</g>
<g>
</g>
<g>
</g>
<g>
</g>
<g>
</g>
<g>
</g>
<g>
</g>
<g>
</g>
<g>
</g>
<g>
</g>
<g>
</g>
<g>
</g>
<g>
</g>
<g>
</g>
<g>
</g>
</svg>
